<?xml version="1.0" encoding="UTF-8" standalone="no"?>
<!-- Created with Inkscape (http://www.inkscape.org/) -->

<svg
   xmlns:dc="http://purl.org/dc/elements/1.1/"
   xmlns:cc="http://creativecommons.org/ns#"
   xmlns:rdf="http://www.w3.org/1999/02/22-rdf-syntax-ns#"
   xmlns:svg="http://www.w3.org/2000/svg"
   xmlns="http://www.w3.org/2000/svg"
   version="1.1"
   width="48"
   height="48"
   id="svg2">
  <defs
     id="defs4" />
  <metadata
     id="metadata7">
    <rdf:RDF>
      <cc:Work
         rdf:about="">
        <dc:format>image/svg+xml</dc:format>
        <dc:type
           rdf:resource="http://purl.org/dc/dcmitype/StillImage" />
        <dc:title></dc:title>
      </cc:Work>
    </rdf:RDF>
  </metadata>
  <g
     transform="translate(0,-1004.3622)"
     id="layer1">
    <path
       d="M 7.0710678,37.898475 8.7125657,18.958114 38.638335,29.05964 38.764604,9.7404723"
       transform="translate(0,1004.3622)"
       id="path4056"
       style="fill:none;stroke:#444444;stroke-width:1;stroke-linecap:butt;stroke-linejoin:miter;stroke-miterlimit:4;stroke-opacity:1;stroke-dasharray:2, 1;stroke-dashoffset:0" />
    <path
       d="M 7.0710678,38.782358 C 10.227795,21.483496 14.773481,21.736034 26.390235,24.89276 38.00699,28.049487 38.00699,9.3616651 38.00699,9.3616651"
       transform="translate(0,1004.3622)"
       id="path4058"
       style="fill:none;stroke:#444444;stroke-width:2.5;stroke-linecap:butt;stroke-linejoin:miter;stroke-miterlimit:4;stroke-opacity:1;stroke-dasharray:none" />
    <path
       d="m 8.8388346,38.65609 a 1.5783633,1.5152289 0 1 1 -3.1567266,0 1.5783633,1.5152289 0 1 1 3.1567266,0 z"
       transform="translate(0,1004.3622)"
       id="path4060"
       style="fill:#ffffff;stroke:#444444;stroke-width:1.29999995;stroke-linejoin:miter;stroke-miterlimit:4;stroke-opacity:1;stroke-dasharray:none;stroke-dashoffset:0" />
    <path
       d="m 8.8388346,38.65609 a 1.5783633,1.5152289 0 1 1 -3.1567266,0 1.5783633,1.5152289 0 1 1 3.1567266,0 z"
       transform="translate(1.3258255,984.53794)"
       id="path4060-0"
       style="fill:#ffffff;stroke:#444444;stroke-width:1.29999995;stroke-linejoin:miter;stroke-miterlimit:4;stroke-opacity:1;stroke-dasharray:none;stroke-dashoffset:0" />
    <path
       d="m 8.8388346,38.65609 a 1.5783633,1.5152289 0 1 1 -3.1567266,0 1.5783633,1.5152289 0 1 1 3.1567266,0 z"
       transform="translate(31.125326,994.63946)"
       id="path4060-9"
       style="fill:#ffffff;stroke:#444444;stroke-width:1.29999995;stroke-linejoin:miter;stroke-miterlimit:4;stroke-opacity:1;stroke-dasharray:none;stroke-dashoffset:0" />
    <path
       d="m 8.8388346,38.65609 a 1.5783633,1.5152289 0 1 1 -3.1567266,0 1.5783633,1.5152289 0 1 1 3.1567266,0 z"
       transform="translate(30.620249,975.32034)"
       id="path4060-3"
       style="fill:#ffffff;stroke:#444444;stroke-width:1.29999995;stroke-linejoin:miter;stroke-miterlimit:4;stroke-opacity:1;stroke-dasharray:none;stroke-dashoffset:0" />
  </g>
</svg>
